# xmcd
#
# Track frame offsets: 
#        150
#        18158
#        34521
#        54826
#        67795
#        91064
#        109301
#        120486
#        141159
#        157504
#        175897
#        192918
#
# Disc length: 3223 seconds
#
# Revision: 0
# Processed by: cddbd v1.5.2PL0 Copyright (c) Steve Scherf et al.
# Submitted via: ExactAudioCopy v0.99pb4
#
DISCID=850c950c
DTITLE=Up To Fly - You're All Invited
DYEAR=2002
DGENRE=Blues
TTITLE0=Leave
TTITLE1=No Use In Saying
TTITLE2=Treat Me Like A King
TTITLE3=She Ain't Got (What You've Got)
TTITLE4=Just Like Before
TTITLE5=Band Of Gold
TTITLE6=Once Too Tired
TTITLE7=Waltz Forever
TTITLE8=Just For Tomorrow
TTITLE9=Beware Of The Trolls
TTITLE10=Lowlife Guide To Lovin'
TTITLE11=Hallelujah
EXTD=
EXTT0=
EXTT1=
EXTT2=
EXTT3=
EXTT4=
EXTT5=
EXTT6=
EXTT7=
EXTT8=
EXTT9=
EXTT10=
EXTT11=
PLAYORDER=
